<svg id="svg" xmlns="http://www.w3.org/2000/svg" xmlns:xlink="http://www.w3.org/1999/xlink" width="400" height="400" viewBox="0, 0, 400,400"><g id="svgg"><path id="path0" d="M189.453 21.125 C 121.208 31.757,97.278 124.863,144.811 194.822 C 184.401 253.091,245.222 236.950,271.365 161.237 C 297.221 86.353,253.275 11.182,189.453 21.125 M110.985 189.079 C 65.485 216.148,40.569 267.237,40.316 333.984 C 40.242 353.439,41.096 356.965,46.798 360.743 C 52.614 364.597,46.651 364.453,200.781 364.453 L 345.703 364.453 349.728 362.632 C 359.266 358.317,361.328 350.165,359.444 324.219 C 354.854 261.002,329.505 213.717,286.735 188.589 C 279.603 184.399,280.099 184.391,278.182 188.725 C 269.164 209.112,248.083 231.391,228.516 241.213 C 190.281 260.407,143.939 239.087,121.034 191.767 C 119.275 188.131,117.777 185.157,117.707 185.157 C 117.636 185.157,114.611 186.922,110.985 189.079 " stroke="none" fill="#636363" fill-rule="evenodd"></path></g></svg>
